Johnny English Reborn (2011) 1080p MKV AC3+DTS Eng NL Subs
.
En dan nu maar de echte 1080p en geen upscale 720p
.
And now the real 1080p and not an upscale 720p
.
[IMG]http://img823.imageshack.us/img823/5995/johnnyenglishreborn.jpg[/IMG]
.
Verenigde Staten / Frankrijk / Verenigd Koninkrijk
Komedie
101 minuten

geregisseerd door Oliver Parker
met Rowan Atkinson, Rosamund Pike en Dominic West

Er wordt opnieuw een beroep gedaan op Johnny English, de onwaarschijnlijke geheim agent in de Britse geheime dienst. Na zijn laatste perikelen heeft MI-7's Johnny English zijn vaardigheden bijgespijkerd in een afgelegen Aziatisch gebied. Maar wanneer zijn leidinggevenden lucht krijgen van een moordpoging op de Chinese president, wat een wereldchaos zal veroorzaken, gaan zij onmiddellijk op zoek naar hun onorthodoxe agent. Johnny moet wederom high-tech gadgets besturen om een web van list en bedrog te ontrafelen waarbij MI-7, de CIA en de KGB betrokken zijn.

Momenteel te zien in 1 bioscoop
Vanaf 7 februari te huur
. 
http://www.moviemeter.nl/film/72610
.
PLOT
.
Johnny English goes up against international assassins hunting down the Chinese premier. 
. 
http://www.imdb.com/title/tt1634122/
.
INFO
.
Johnny English Reborn (2011)

Movie..............: Johnny English Reborn (2011)
Genre..............: Komedie
Source.............: Johnny.English.Reborn.1080p.BluRay.x264-WEST
Runtime............: 101 min.
Format.............: x264 (MKV)
Beeld..............: 1080p (1920*800)
Audio..............: English AC3+DTS
Subtitles.NL.......: Vertaald door Tokke en Suurtje Thnx Team Good Job *****
Controle...........: Suurtje
Bewerking+Resync...: Suurtje, Klasse werk m8tinnetje 100% thnx!!!
.
Enjoy
.
Format                           : Matroska
Format version                   : Version 2
File size                        : 8.10 GiB
Duration                         : 1h 41mn
Overall bit rate                 : 11.4 Mbps
Encoded date                     : UTC 2012-01-13 17:53:34
Writing application              : mkvmerge v5.2.0 ('I can't explain') built on Dec 18 2011 18:12:03
Writing library                  : libebml v1.2.3 + libmatroska v1.3.0

Video
ID                               : 1
Format                           : AVC
Format/Info                      : Advanced Video Codec
Format profile                   : High@L4.1
Format settings, CABAC           : Yes
Format settings, ReFrames        : 5 frames
Codec ID                         : V_MPEG4/ISO/AVC
Duration                         : 1h 41mn
Bit rate                         : 9 297 Kbps
Width                            : 1 920 pixels
Height                           : 800 pixels
Display aspect ratio             : 2.40:1
Frame rate                       : 23.976 fps
Color space                      : YUV
Chroma subsampling               : 4:2:0
Bit depth                        : 8 bits
Scan type                        : Progressive
Bits/(Pixel*Frame)               : 0.252
Stream size                      : 6.42 GiB (79%)
Writing library                  : x264 core 116 r2074 2641b9e
Encoding settings                : cabac=1 / ref=5 / deblock=1:0:0 / analyse=0x3:0x2 / me=umh / subme=7 / psy=1 / psy_rd=1.00:0.00 / mixed_ref=1 / me_range=16 / chroma_me=1 / trellis=1 / 8x8dct=1 / cqm=0 / deadzone=21,11 / fast_pskip=1 / chroma_qp_offset=-2 / threads=12 / sliced_threads=0 / nr=0 / decimate=1 / interlaced=0 / bluray_compat=0 / constrained_intra=0 / bframes=3 / b_pyramid=2 / b_adapt=1 / b_bias=0 / direct=1 / weightb=0 / open_gop=0 / weightp=2 / keyint=250 / keyint_min=23 / scenecut=40 / intra_refresh=0 / rc=2pass / mbtree=0 / bitrate=9297 / ratetol=1.0 / qcomp=0.60 / qpmin=0 / qpmax=51 / qpstep=4 / cplxblur=20.0 / qblur=0.5 / ip_ratio=1.40 / pb_ratio=1.30 / aq=1:1.00
Language                         : English
Default                          : Yes
Forced                           : No

Audio #1
ID                               : 2
Format                           : DTS
Format/Info                      : Digital Theater Systems
Codec ID                         : A_DTS
Duration                         : 1h 41mn
Bit rate mode                    : Constant
Bit rate                         : 1 510 Kbps
Channel(s)                       : 6 channels
Channel positions                : Front: L C R, Side: L R, LFE
Sampling rate                    : 48.0 KHz
Bit depth                        : 24 bits
Compression mode                 : Lossy
Stream size                      : 1.07 GiB (13%)
Title                            : DTS
Language                         : English
Default                          : Yes
Forced                           : No

Audio #2
ID                               : 3
Format                           : AC-3
Format/Info                      : Audio Coding 3
Mode extension                   : CM (complete main)
Codec ID                         : A_AC3
Duration                         : 1h 41mn
Bit rate mode                    : Constant
Bit rate                         : 640 Kbps
Channel(s)                       : 6 channels
Channel positions                : Front: L C R, Side: L R, LFE
Sampling rate                    : 48.0 KHz
Bit depth                        : 16 bits
Compression mode                 : Lossy
Stream size                      : 464 MiB (6%)
Title                            : AC3
Language                         : English
Default                          : No
Forced                           : No

Text #1
ID                               : 4
Format                           : UTF-8
Codec ID                         : S_TEXT/UTF8
Codec ID/Info                    : UTF-8 Plain Text
Title                            : English
Language                         : English
Default                          : Yes
Forced                           : No

Text #2
ID                               : 5
Format                           : UTF-8
Codec ID                         : S_TEXT/UTF8
Codec ID/Info                    : UTF-8 Plain Text
Title                            : Nederlands
Language                         : Dutch
Default                          : No
Forced                           : No


